<?xml version="1.0" encoding="UTF-8" standalone="no"?>
<!-- Created with Inkscape (http://www.inkscape.org/) -->

<svg
   xmlns:dc="http://purl.org/dc/elements/1.1/"
   xmlns:cc="http://creativecommons.org/ns#"
   xmlns:rdf="http://www.w3.org/1999/02/22-rdf-syntax-ns#"
   xmlns:svg="http://www.w3.org/2000/svg"
   xmlns="http://www.w3.org/2000/svg"
   xmlns:sodipodi="http://sodipodi.sourceforge.net/DTD/sodipodi-0.dtd"
   xmlns:inkscape="http://www.inkscape.org/namespaces/inkscape"
   width="210mm"
   height="297mm"
   id="svg2"
   version="1.1"
   inkscape:version="0.48.4 r9939"
   sodipodi:docname="LOGO OEP FINAL.svg">
  <defs
     id="defs4" />
  <sodipodi:namedview
     id="base"
     pagecolor="#ffffff"
     bordercolor="#666666"
     borderopacity="1.0"
     inkscape:pageopacity="0.0"
     inkscape:pageshadow="2"
     inkscape:zoom="0.83843616"
     inkscape:cx="409.17073"
     inkscape:cy="475.90244"
     inkscape:document-units="px"
     inkscape:current-layer="layer2"
     showgrid="false"
     inkscape:window-width="1024"
     inkscape:window-height="538"
     inkscape:window-x="-8"
     inkscape:window-y="-8"
     inkscape:window-maximized="1"
     showguides="true"
     inkscape:guide-bbox="true">
    <sodipodi:guide
       orientation="1,0"
       position="134.01709,492.18146"
       id="guide3897" />
    <sodipodi:guide
       orientation="1,0"
       position="609.14634,497.8424"
       id="guide3899" />
  </sodipodi:namedview>
  <metadata
     id="metadata7">
    <rdf:RDF>
      <cc:Work
         rdf:about="">
        <dc:format>image/svg+xml</dc:format>
        <dc:type
           rdf:resource="http://purl.org/dc/dcmitype/StillImage" />
        <dc:title></dc:title>
      </cc:Work>
    </rdf:RDF>
  </metadata>
  <g
     inkscape:label="Capa 1"
     inkscape:groupmode="layer"
     id="layer1"
     style="display:inline" />
  <g
     inkscape:groupmode="layer"
     id="layer2"
     inkscape:label="OEP"
     style="display:inline">
    <path
       style="fill:#ef0000;fill-opacity:1"
       d="m 134.375,428.4375 0,39.28125 66.625,0 c 6.30738,-17.12076 19.31194,-31.17008 36,-39.28125 l -102.625,0 z"
       id="rect2997"
       inkscape:connector-curvature="0" />
    <path
       style="fill:#fce50d;fill-opacity:1"
       d="m 134.375,467.71875 0,40.84375 64.6875,0 c -1.47241,-5.56057 -2.28125,-11.37415 -2.28125,-17.375 0,-8.22778 1.51541,-16.1308 4.21875,-23.46875 l -66.625,0 z"
       id="rect2997-1"
       inkscape:connector-curvature="0" />
    <path
       style="fill:#008119;fill-opacity:1"
       d="m 134.375,508.5625 0,0.9375 0,0.9375 0,42.71875 101.03125,0 c -17.83538,-9.20235 -31.2371,-25.3084 -36.34375,-44.59375 l -64.6875,0 z"
       id="rect2997-1-7"
       inkscape:connector-curvature="0" />
    <path
       transform="matrix(1.0633985,0,0,1.0726179,-12.804199,-32.963837)"
       style="fill:#333333;fill-opacity:1;stroke:none"
       d="m 335.5,488.36218 c 0,33.96551 -29.77306,61.5 -66.5,61.5 -36.72694,0 -66.5,-27.53449 -66.5,-61.5 0,-33.96551 29.77306,-61.5 66.5,-61.5 36.72694,0 66.5,27.53449 66.5,61.5 z"
       id="path3870" />
    <path
       style="fill:#333333;fill-opacity:1;stroke:none;stroke-width:1px;stroke-linecap:butt;stroke-linejoin:miter;stroke-opacity:1"
       d="m 348.19395,552.62557 83.5069,0.3728 -0.55919,-30.19669 -40.63506,0.3728 -0.5592,-7.26958 35.78868,-10.99756 -10.43837,-32.99268 -24.60471,7.82877 0,-21.06312 39.33026,-0.1864 0.5592,-30.01029 -82.57491,0 z"
       id="path3872"
       inkscape:connector-curvature="0" />
    <path
       sodipodi:nodetypes="cssssssssssssscsssssssssscsssccc"
       style="fill:#333333;fill-opacity:1;stroke:none;stroke-width:1px;stroke-linecap:butt;stroke-linejoin:miter;stroke-opacity:1"
       d="m 478.90007,553.02125 c 0,0 0.67388,-36.16459 0.67388,-37.73696 0,-1.57238 -3.14475,-9.65887 -4.04325,-12.80362 -0.8985,-3.14475 -2.02162,-12.80361 -1.34775,-22.6871 0.67388,-9.88349 0,-16.17299 1.34775,-16.17299 1.34775,0 3.36937,-0.22462 3.14475,6.2895 -0.22463,6.51412 0.67387,10.78199 1.34775,10.78199 0.67387,0 -0.22463,-12.80362 -0.22463,-15.72374 0,-2.92012 -2.02162,-11.00661 0.8985,-11.45586 2.92012,-0.44925 3.81862,1.34774 4.04325,9.65886 0.22462,8.31112 0.44925,14.60061 1.12312,14.60061 0.67388,0 0,-15.94836 -0.22462,-20.66548 -0.22463,-4.71712 -0.8985,-7.41262 1.12312,-7.41262 2.02163,0 3.594,-0.22462 3.81862,10.78199 0.22463,11.00662 0.67388,17.07149 1.57238,16.84686 0.8985,-0.22462 0,-14.60061 -0.22463,-16.62223 -0.22462,-2.02162 -0.8985,-5.61562 1.57238,-5.61562 2.47087,0 3.81862,4.94174 4.71712,12.35436 0.8985,7.41262 5.16637,17.96999 6.51412,19.54236 1.34774,1.57237 2.92012,-0.44925 4.94174,-2.24625 2.02162,-1.797 3.594,-3.81862 5.391,-4.04324 1.797,-0.22463 6.96337,0.8985 5.84024,2.47087 -1.12312,1.57237 -5.61562,4.04325 -6.06487,6.51412 -0.44925,2.47087 -1.797,8.08649 -5.16637,12.80361 -3.36937,4.71712 -7.18799,7.188 -7.18799,9.88349 0,2.6955 -0.44925,3.36938 -0.44925,3.36938 0,0 27.85347,2.24624 39.08471,-18.64386 11.23124,-20.89011 1.34775,-43.35259 -2.69549,-48.96821 -4.04325,-5.61562 -9.92672,-18.82756 -36.61385,-19.31773 -15.03105,-0.27608 -62.67032,-0.67388 -62.67032,-0.67388 L 438.91686,552.572 z"
       id="path3876"
       inkscape:connector-curvature="0" />
  </g>
  <g
     inkscape:groupmode="layer"
     id="layer5"
     inkscape:label="TEXTO">
    <g
       transform="matrix(1.0217941,0,0,1.1356532,1.3266166,-82.860402)"
       style="font-size:22px;font-style:normal;font-weight:normal;line-height:125%;letter-spacing:0px;word-spacing:0px;fill:#000000;fill-opacity:1;stroke:none;font-family:Sans"
       id="flowRoot4997">
      <path
         d="m 144.03125,585.32249 c -1e-5,1.92151 -0.59437,3.54382 -1.78308,4.86694 -1.25612,1.39819 -2.8636,2.09729 -4.82245,2.09729 -2.10828,0 -3.79047,-0.71393 -5.04657,-2.14178 -1.16638,-1.32349 -1.74957,-2.98718 -1.74957,-4.99109 0,-1.89147 0.65423,-3.49511 1.96271,-4.81092 1.30846,-1.31578 2.94964,-1.97368 4.92352,-1.97369 1.93615,10e-6 3.5211,0.69526 4.75488,2.08575 1.17369,1.3235 1.76055,2.946 1.76056,4.8675 z m -4.25006,-0.10108 c -1e-5,-1.12169 -0.15327,-2.02257 -0.45978,-2.70263 -0.40394,-0.88989 -1.04334,-1.33483 -1.91821,-1.33484 -0.94959,10e-6 -1.63734,0.44495 -2.06323,1.33484 -0.33656,0.69507 -0.50483,1.61097 -0.50483,2.74768 0,1.57727 0.25415,2.70996 0.76246,3.39807 0.41124,0.56067 0.99828,0.841 1.7611,0.841 0.67272,0 1.20355,-0.22815 1.59247,-0.68445 0.32153,-0.38122 0.54949,-0.93072 0.6839,-1.6485 0.0974,-0.52331 0.14611,-1.1737 0.14612,-1.95117 z m 1.02722,-10.71551 -4.75488,2.91577 -1.37934,0 4.30664,-4.23963 z"
         style="font-size:18px;font-variant:normal;font-weight:bold;font-stretch:normal;letter-spacing:3.23883152px;font-family:Stone Sans;-inkscape-font-specification:Stone Sans Bold"
         id="path3979" />
      <path
         d="m 160.74866,591.7819 -4.25061,0.4378 -2.19837,-5.55139 -1.11017,0 0,5.29321 -4.02594,0 0,-13.44671 6.49347,0 c 1.24108,10e-6 2.26153,0.29902 3.06134,0.89703 0.91222,0.68043 1.36834,1.65236 1.36835,2.91577 -10e-6,0.78517 -0.21296,1.52162 -0.63885,2.20935 -0.46364,0.74049 -1.08436,1.26014 -1.86219,1.55896 z m -4.47473,-9.28565 c -1e-5,-0.6057 -0.21681,-1.04314 -0.65039,-1.31231 -0.32924,-0.20177 -0.77052,-0.30267 -1.32386,-0.30268 -0.20179,10e-6 -0.41483,0.0131 -0.63913,0.0393 -0.22431,0.0262 -0.36997,0.058 -0.43698,0.0953 l 0,3.49914 c 0.0297,0.0147 0.12304,0.0351 0.28015,0.0612 0.1571,0.0262 0.33655,0.0393 0.53833,0.0393 0.7998,0 1.38665,-0.21295 1.76056,-0.63886 0.3142,-0.35155 0.47131,-0.84502 0.47132,-1.48041 z"
         style="font-size:18px;font-variant:normal;font-weight:bold;font-stretch:normal;letter-spacing:3.23883152px;font-family:Stone Sans;-inkscape-font-specification:Stone Sans Bold"
         id="path3981" />
      <path
         d="m 177.77148,585.92783 -0.0225,5.68598 c -0.21681,0.0597 -0.4336,0.11957 -0.65039,0.17962 -0.52333,0.1344 -1.06166,0.24646 -1.61499,0.33619 -0.77747,0.12707 -1.46906,0.19061 -2.07477,0.19061 -2.16834,0 -4.00763,-0.62055 -5.51788,-1.86164 -1.62232,-1.3308 -2.43347,-3.07287 -2.43347,-5.22619 0,-2.02624 0.80749,-3.68975 2.42248,-4.99054 1.51025,-1.21874 3.32336,-1.82811 5.43933,-1.82813 1.13635,2e-5 2.03356,0.10475 2.69166,0.31421 0.47093,0.23183 0.72874,0.35524 0.77343,0.37024 l -1.02063,2.37744 c -0.26148,-0.0674 -0.47443,-0.11607 -0.63885,-0.14611 -0.49366,-0.097 -0.91609,-0.14556 -1.26728,-0.14557 -1.31617,10e-6 -2.35932,0.41492 -3.12945,1.24475 -0.71741,0.77784 -1.07612,1.76478 -1.07611,2.96081 -1e-5,1.15907 0.24664,2.07496 0.73993,2.74768 0.38122,0.52332 0.90453,0.89338 1.56994,1.11017 0.43359,0.14209 0.90838,0.21314 1.42438,0.21314 0.0824,0 0.1516,-0.002 0.20764,-0.006 0.056,-0.004 0.11022,-0.009 0.1626,-0.017 l 0,-3.51013 z"
         style="font-size:18px;font-variant:normal;font-weight:bold;font-stretch:normal;letter-spacing:3.23883152px;font-family:Stone Sans;-inkscape-font-specification:Stone Sans Bold"
         id="path3983" />
      <path
         d="m 196.42029,591.96152 -4.30664,0 -1.05414,-3.20745 -4.19458,0 -1.30078,3.24096 -3.16296,0 5.50689,-13.48022 3.37555,0 z m -5.97766,-5.31573 -1.36835,-4.20557 -1.53643,4.20557 z"
         style="font-size:18px;font-variant:normal;font-weight:bold;font-stretch:normal;letter-spacing:3.23883152px;font-family:Stone Sans;-inkscape-font-specification:Stone Sans Bold"
         id="path3985" />
      <path
         d="m 212.95642,591.96152 -2.53455,0 -6.21331,-7.63714 0,7.63714 -3.12891,0 0,-13.46923 2.79273,0 5.87658,7.46905 0,-7.45752 3.20746,0 z"
         style="font-size:18px;font-variant:normal;font-weight:bold;font-stretch:normal;letter-spacing:3.23883152px;font-family:Stone Sans;-inkscape-font-specification:Stone Sans Bold"
         id="path3987" />
      <path
         d="m 231.52229,585.32249 c -2e-5,1.92151 -0.59438,3.54382 -1.78309,4.86694 -1.25611,1.39819 -2.86359,2.09729 -4.82244,2.09729 -2.10829,0 -3.79047,-0.71393 -5.04657,-2.14178 -1.16639,-1.32349 -1.74958,-2.98718 -1.74958,-4.99109 0,-1.89147 0.65424,-3.49511 1.96271,-4.81092 1.30847,-1.31578 2.94964,-1.97368 4.92352,-1.97369 1.93615,10e-6 3.52111,0.69526 4.75489,2.08575 1.17369,1.3235 1.76054,2.946 1.76056,4.8675 z m -4.25007,-0.10108 c -1e-5,-1.12169 -0.15326,-2.02257 -0.45977,-2.70263 -0.40394,-0.88989 -1.04335,-1.33483 -1.91822,-1.33484 -0.94959,10e-6 -1.63733,0.44495 -2.06323,1.33484 -0.33655,0.69507 -0.50483,1.61097 -0.50482,2.74768 -1e-5,1.57727 0.25414,2.70996 0.76245,3.39807 0.41125,0.56067 0.99828,0.841 1.76111,0.841 0.67272,0 1.20354,-0.22815 1.59247,-0.68445 0.32152,-0.38122 0.54949,-0.93072 0.6839,-1.6485 0.0974,-0.52331 0.1461,-1.1737 0.14611,-1.95117 z"
         style="font-size:18px;font-variant:normal;font-weight:bold;font-stretch:normal;letter-spacing:3.23883152px;font-family:Stone Sans;-inkscape-font-specification:Stone Sans Bold"
         id="path3989" />
      <path
         d="m 254.78101,591.98405 -9.04998,0 0,-13.46924 8.24304,0 0,2.51202 -4.19458,0 0,2.62464 4.07098,0 0,2.53454 -4.02594,0 0,3.24097 4.95648,0 z"
         style="font-size:18px;font-variant:normal;font-weight:bold;font-stretch:normal;letter-spacing:3.23883152px;font-family:Stone Sans;-inkscape-font-specification:Stone Sans Bold"
         id="path3991" />
      <path
         d="m 268.76996,591.96152 -8.98352,0 0,-13.44671 4.02649,0 0,10.91217 4.95703,0 z"
         style="font-size:18px;font-variant:normal;font-weight:bold;font-stretch:normal;letter-spacing:3.23883152px;font-family:Stone Sans;-inkscape-font-specification:Stone Sans Bold"
         id="path3993" />
      <path
         d="m 282.84462,591.98405 -9.04999,0 0,-13.46924 8.24304,0 0,2.51202 -4.19458,0 0,2.62464 4.07099,0 0,2.53454 -4.02594,0 0,3.24097 4.95648,0 z"
         style="font-size:18px;font-variant:normal;font-weight:bold;font-stretch:normal;letter-spacing:3.23883152px;font-family:Stone Sans;-inkscape-font-specification:Stone Sans Bold"
         id="path3995" />
      <path
         d="m 298.97536,591.7374 c -0.44093,0.14209 -0.80348,0.24665 -1.08765,0.31366 -0.85987,0.20948 -1.63001,0.31421 -2.31042,0.31421 -2.13832,0 -3.98127,-0.65039 -5.52887,-1.95117 -1.63001,-1.36853 -2.44501,-3.08825 -2.44501,-5.15918 0,-2.02624 0.81115,-3.68975 2.43347,-4.99054 1.51794,-1.21874 3.33856,-1.82811 5.46185,-1.82812 1.13635,1e-5 2.0299,0.10475 2.68067,0.3142 0.47826,0.23183 0.73991,0.35506 0.78497,0.36969 l -1.02063,2.378 c -0.26185,-0.0674 -0.47499,-0.11608 -0.6394,-0.14612 -0.4933,-0.097 -0.91939,-0.14556 -1.27826,-0.14557 -1.31617,10e-6 -2.35932,0.41126 -3.12946,1.23376 -0.71741,0.77015 -1.07611,1.75709 -1.07611,2.96082 0,1.18872 0.3587,2.16431 1.07611,2.92676 0.77014,0.81518 1.82061,1.22278 3.15143,1.22277 0.35888,10e-6 0.7477,-0.0337 1.16647,-0.10107 0.41875,-0.0674 0.77023,-0.14959 1.05442,-0.24664 z"
         style="font-size:18px;font-variant:normal;font-weight:bold;font-stretch:normal;letter-spacing:3.23883152px;font-family:Stone Sans;-inkscape-font-specification:Stone Sans Bold"
         id="path3997" />
      <path
         d="m 315.95314,581.04935 -3.96991,0 0,10.91217 -4.02594,0 0,-10.91217 -3.90289,0 0,-2.53454 11.89874,0 z"
         style="font-size:18px;font-variant:normal;font-weight:bold;font-stretch:normal;letter-spacing:3.23883152px;font-family:Stone Sans;-inkscape-font-specification:Stone Sans Bold"
         id="path3999" />
      <path
         d="m 334.20973,585.32249 c -10e-6,1.92151 -0.59437,3.54382 -1.78308,4.86694 -1.25611,1.39819 -2.8636,2.09729 -4.82245,2.09729 -2.10828,0 -3.79047,-0.71393 -5.04657,-2.14178 -1.16638,-1.32349 -1.74957,-2.98718 -1.74957,-4.99109 0,-1.89147 0.65423,-3.49511 1.96271,-4.81092 1.30846,-1.31578 2.94964,-1.97368 4.92352,-1.97369 1.93615,10e-6 3.52111,0.69526 4.75488,2.08575 1.1737,1.3235 1.76055,2.946 1.76056,4.8675 z m -4.25006,-0.10108 c -1e-5,-1.12169 -0.15327,-2.02257 -0.45978,-2.70263 -0.40394,-0.88989 -1.04334,-1.33483 -1.91821,-1.33484 -0.94959,10e-6 -1.63733,0.44495 -2.06323,1.33484 -0.33656,0.69507 -0.50483,1.61097 -0.50482,2.74768 -10e-6,1.57727 0.25414,2.70996 0.76245,3.39807 0.41125,0.56067 0.99828,0.841 1.76111,0.841 0.67272,0 1.20354,-0.22815 1.59246,-0.68445 0.32153,-0.38122 0.54949,-0.93072 0.6839,-1.6485 0.0974,-0.52331 0.14611,-1.1737 0.14612,-1.95117 z"
         style="font-size:18px;font-variant:normal;font-weight:bold;font-stretch:normal;letter-spacing:3.23883152px;font-family:Stone Sans;-inkscape-font-specification:Stone Sans Bold"
         id="path4001" />
      <path
         d="m 351.06776,591.7819 -4.25061,0.4378 -2.19836,-5.55139 -1.11017,0 0,5.29321 -4.02594,0 0,-13.44671 6.49347,0 c 1.24108,10e-6 2.26153,0.29902 3.06134,0.89703 0.91222,0.68043 1.36834,1.65236 1.36835,2.91577 -1e-5,0.78517 -0.21297,1.52162 -0.63886,2.20935 -0.46363,0.74049 -1.08436,1.26014 -1.86218,1.55896 z m -4.47473,-9.28565 c -10e-6,-0.6057 -0.2168,-1.04314 -0.65039,-1.31231 -0.32923,-0.20177 -0.77051,-0.30267 -1.32385,-0.30268 -0.20179,10e-6 -0.41483,0.0131 -0.63913,0.0393 -0.22431,0.0262 -0.36997,0.058 -0.43698,0.0953 l 0,3.49914 c 0.0297,0.0147 0.12304,0.0351 0.28015,0.0612 0.1571,0.0262 0.33654,0.0393 0.53833,0.0393 0.7998,0 1.38665,-0.21295 1.76056,-0.63886 0.3142,-0.35155 0.4713,-0.84502 0.47131,-1.48041 z"
         style="font-size:18px;font-variant:normal;font-weight:bold;font-stretch:normal;letter-spacing:3.23883152px;font-family:Stone Sans;-inkscape-font-specification:Stone Sans Bold"
         id="path4003" />
      <path
         d="m 369.40291,591.96152 -4.30664,0 -1.05414,-3.20745 -4.19458,0 -1.30078,3.24096 -3.16297,0 5.5069,-13.48022 3.37555,0 z m -5.97766,-5.31573 -1.36835,-4.20557 -1.53644,4.20557 z"
         style="font-size:18px;font-variant:normal;font-weight:bold;font-stretch:normal;letter-spacing:3.23883152px;font-family:Stone Sans;-inkscape-font-specification:Stone Sans Bold"
         id="path4005" />
      <path
         d="m 383.26991,591.96152 -8.98352,0 0,-13.44671 4.02649,0 0,10.91217 4.95703,0 z"
         style="font-size:18px;font-variant:normal;font-weight:bold;font-stretch:normal;letter-spacing:3.23883152px;font-family:Stone Sans;-inkscape-font-specification:Stone Sans Bold"
         id="path4007" />
      <path
         d="m 408.38864,582.37266 c -1e-5,1.50294 -0.5345,2.65815 -1.60345,3.46563 -0.76246,0.57569 -1.75306,0.95326 -2.9718,1.1327 -0.41127,0.0597 -0.9496,0.0895 -1.615,0.0895 l 0,-2.32141 c 0.16443,10e-6 0.3587,-0.0298 0.58283,-0.0895 0.4486,-0.11974 0.81499,-0.31786 1.09918,-0.59436 0.39623,-0.3889 0.59435,-0.90856 0.59436,-1.55896 -1e-5,-0.53832 -0.22431,-0.92723 -0.67291,-1.16674 -0.33619,-0.17944 -0.78095,-0.26916 -1.33429,-0.26917 -0.28419,10e-6 -0.52534,0.015 -0.72345,0.045 -0.19813,0.03 -0.31586,0.0562 -0.35321,0.0786 l 0,10.77758 -4.03748,0 0,-13.44671 6.50446,0 c 1.25609,10e-6 2.2954,0.30653 3.11792,0.91955 0.94188,0.70277 1.41283,1.6822 1.41284,2.9383 z"
         style="font-size:18px;font-variant:normal;font-weight:bold;font-stretch:normal;letter-spacing:3.23883152px;font-family:Stone Sans;-inkscape-font-specification:Stone Sans Bold"
         id="path4009" />
      <path
         d="m 422.30673,591.96152 -8.98352,0 0,-13.44671 4.02649,0 0,10.91217 4.95703,0 z"
         style="font-size:18px;font-variant:normal;font-weight:bold;font-stretch:normal;letter-spacing:3.23883152px;font-family:Stone Sans;-inkscape-font-specification:Stone Sans Bold"
         id="path4011" />
      <path
         d="m 438.68082,586.42112 c -2e-5,2.03394 -0.54219,3.53302 -1.62653,4.49725 -0.98658,0.88221 -2.4333,1.32331 -4.34015,1.32331 -1.91382,0 -3.35303,-0.49347 -4.31763,-1.48041 -0.86718,-0.88953 -1.30078,-2.12311 -1.30078,-3.70075 l 0,-8.54571 4.00342,0 0,7.92883 c 0,0.89722 0.0972,1.56263 0.29169,1.99622 0.29186,0.65808 0.83019,0.98712 1.61499,0.98712 0.87487,0 1.48791,-0.34387 1.83911,-1.03162 0.26183,-0.50866 0.39275,-1.23394 0.39276,-2.17584 l 0,-7.70471 3.44312,0 z"
         style="font-size:18px;font-variant:normal;font-weight:bold;font-stretch:normal;letter-spacing:3.23883152px;font-family:Stone Sans;-inkscape-font-specification:Stone Sans Bold"
         id="path4013" />
      <path
         d="m 455.58334,591.7819 -4.25061,0.4378 -2.19836,-5.55139 -1.11017,0 0,5.29321 -4.02594,0 0,-13.44671 6.49347,0 c 1.24108,10e-6 2.26153,0.29902 3.06134,0.89703 0.91222,0.68043 1.36834,1.65236 1.36835,2.91577 -1e-5,0.78517 -0.21297,1.52162 -0.63886,2.20935 -0.46363,0.74049 -1.08436,1.26014 -1.86218,1.55896 z m -4.47473,-9.28565 c -10e-6,-0.6057 -0.2168,-1.04314 -0.65039,-1.31231 -0.32923,-0.20177 -0.77051,-0.30267 -1.32385,-0.30268 -0.20179,10e-6 -0.41483,0.0131 -0.63913,0.0393 -0.22431,0.0262 -0.36997,0.058 -0.43698,0.0953 l 0,3.49914 c 0.0297,0.0147 0.12304,0.0351 0.28015,0.0612 0.1571,0.0262 0.33654,0.0393 0.53833,0.0393 0.7998,0 1.38665,-0.21295 1.76056,-0.63886 0.3142,-0.35155 0.4713,-0.84502 0.47131,-1.48041 z"
         style="font-size:18px;font-variant:normal;font-weight:bold;font-stretch:normal;letter-spacing:3.23883152px;font-family:Stone Sans;-inkscape-font-specification:Stone Sans Bold"
         id="path4015" />
      <path
         d="m 464.90146,591.96152 -4.02594,0 0,-13.44671 4.02594,0 z"
         style="font-size:18px;font-variant:normal;font-weight:bold;font-stretch:normal;letter-spacing:3.23883152px;font-family:Stone Sans;-inkscape-font-specification:Stone Sans Bold"
         id="path4017" />
      <path
         d="m 482.05228,591.96152 -2.53455,0 -6.21332,-7.63714 0,7.63714 -3.1289,0 0,-13.46923 2.79272,0 5.87659,7.46905 0,-7.45752 3.20746,0 z"
         style="font-size:18px;font-variant:normal;font-weight:bold;font-stretch:normal;letter-spacing:3.23883152px;font-family:Stone Sans;-inkscape-font-specification:Stone Sans Bold"
         id="path4019" />
      <path
         d="m 500.78677,591.96152 -4.30664,0 -1.05414,-3.20745 -4.19458,0 -1.30078,3.24096 -3.16296,0 5.5069,-13.48022 3.37555,0 z m -5.97766,-5.31573 -1.36834,-4.20557 -1.53644,4.20557 z"
         style="font-size:18px;font-variant:normal;font-weight:bold;font-stretch:normal;letter-spacing:3.23883152px;font-family:Stone Sans;-inkscape-font-specification:Stone Sans Bold"
         id="path4021" />
      <path
         d="m 516.79556,591.7374 c -0.44093,0.14209 -0.80348,0.24665 -1.08764,0.31366 -0.85988,0.20948 -1.63002,0.31421 -2.31043,0.31421 -2.13831,0 -3.98127,-0.65039 -5.52887,-1.95117 -1.63,-1.36853 -2.44501,-3.08825 -2.44501,-5.15918 0,-2.02624 0.81116,-3.68975 2.43348,-4.99054 1.51794,-1.21874 3.33855,-1.82811 5.46185,-1.82812 1.13634,1e-5 2.0299,0.10475 2.68066,0.3142 0.47826,0.23183 0.73992,0.35506 0.78498,0.36969 l -1.02063,2.378 c -0.26186,-0.0674 -0.47499,-0.11608 -0.63941,-0.14612 -0.49329,-0.097 -0.91938,-0.14556 -1.27826,-0.14557 -1.31617,10e-6 -2.35932,0.41126 -3.12945,1.23376 -0.71742,0.77015 -1.07612,1.75709 -1.07611,2.96082 -10e-6,1.18872 0.35869,2.16431 1.07611,2.92676 0.77013,0.81518 1.82061,1.22278 3.15143,1.22277 0.35887,10e-6 0.7477,-0.0337 1.16647,-0.10107 0.41875,-0.0674 0.77022,-0.14959 1.05441,-0.24664 z"
         style="font-size:18px;font-variant:normal;font-weight:bold;font-stretch:normal;letter-spacing:3.23883152px;font-family:Stone Sans;-inkscape-font-specification:Stone Sans Bold"
         id="path4023" />
      <path
         d="m 526.6185,591.96152 -4.02594,0 0,-13.44671 4.02594,0 z"
         style="font-size:18px;font-variant:normal;font-weight:bold;font-stretch:normal;letter-spacing:3.23883152px;font-family:Stone Sans;-inkscape-font-specification:Stone Sans Bold"
         id="path4025" />
      <path
         d="m 545.35025,585.32249 c -10e-6,1.92151 -0.59437,3.54382 -1.78308,4.86694 -1.25612,1.39819 -2.8636,2.09729 -4.82245,2.09729 -2.10828,0 -3.79047,-0.71393 -5.04657,-2.14178 -1.16638,-1.32349 -1.74957,-2.98718 -1.74957,-4.99109 0,-1.89147 0.65423,-3.49511 1.96271,-4.81092 1.30846,-1.31578 2.94964,-1.97368 4.92352,-1.97369 1.93615,10e-6 3.52111,0.69526 4.75488,2.08575 1.17369,1.3235 1.76055,2.946 1.76056,4.8675 z m -4.25006,-0.10108 c -10e-6,-1.12169 -0.15327,-2.02257 -0.45978,-2.70263 -0.40394,-0.88989 -1.04334,-1.33483 -1.91821,-1.33484 -0.94959,10e-6 -1.63734,0.44495 -2.06323,1.33484 -0.33656,0.69507 -0.50483,1.61097 -0.50483,2.74768 0,1.57727 0.25415,2.70996 0.76246,3.39807 0.41124,0.56067 0.99828,0.841 1.7611,0.841 0.67273,0 1.20355,-0.22815 1.59247,-0.68445 0.32153,-0.38122 0.54949,-0.93072 0.6839,-1.6485 0.0974,-0.52331 0.14611,-1.1737 0.14612,-1.95117 z"
         style="font-size:18px;font-variant:normal;font-weight:bold;font-stretch:normal;letter-spacing:3.23883152px;font-family:Stone Sans;-inkscape-font-specification:Stone Sans Bold"
         id="path4027" />
      <path
         d="m 562.2308,591.96152 -2.53454,0 -6.21332,-7.63714 0,7.63714 -3.12891,0 0,-13.46923 2.79273,0 5.87659,7.46905 0,-7.45752 3.20745,0 z"
         style="font-size:18px;font-variant:normal;font-weight:bold;font-stretch:normal;letter-spacing:3.23883152px;font-family:Stone Sans;-inkscape-font-specification:Stone Sans Bold"
         id="path4029" />
      <path
         d="m 580.9653,591.96152 -4.30664,0 -1.05414,-3.20745 -4.19458,0 -1.30078,3.24096 -3.16296,0 5.50689,-13.48022 3.37555,0 z m -5.97766,-5.31573 -1.36835,-4.20557 -1.53643,4.20557 z"
         style="font-size:18px;font-variant:normal;font-weight:bold;font-stretch:normal;letter-spacing:3.23883152px;font-family:Stone Sans;-inkscape-font-specification:Stone Sans Bold"
         id="path4031" />
      <path
         d="m 594.83231,591.96152 -8.98352,0 0,-13.44671 4.02648,0 0,10.91217 4.95704,0 z"
         style="font-size:18px;font-variant:normal;font-weight:bold;font-stretch:normal;letter-spacing:3.23883152px;font-family:Stone Sans;-inkscape-font-specification:Stone Sans Bold"
         id="path4033" />
    </g>
    <g
       transform="matrix(0.86057895,0,0,1.0483739,21.170365,-5.317168)"
       style="font-size:22px;font-style:normal;font-weight:normal;line-height:125%;letter-spacing:0px;word-spacing:0px;fill:#000000;fill-opacity:1;stroke:none;font-family:Sans"
       id="flowRoot4997-1">
      <path
         d="m 152.17676,586.1676 -7.05762,0 0,19.39942 -7.15723,0 0,-19.39942 -6.93847,0 0,-4.50586 21.15332,0 z"
         style="font-size:32px;font-variant:normal;font-weight:bold;font-stretch:normal;letter-spacing:-0.41059262px;font-family:Stone Sans;-inkscape-font-specification:Stone Sans Bold"
         id="path3930" />
      <path
         d="m 175.61382,605.24768 -7.55664,0.77832 -3.9082,-9.86914 -1.97364,0 0,9.41016 -7.15722,0 0,-23.90528 11.54394,0 c 2.20637,3e-5 4.02049,0.5316 5.44239,1.59473 1.62172,1.20966 2.43259,2.93752 2.43261,5.18359 -2e-5,1.39585 -0.3786,2.7051 -1.13574,3.92774 -0.82424,1.31642 -1.92775,2.24024 -3.31055,2.77148 z m -7.95508,-16.50781 c -1e-5,-1.07681 -0.38543,-1.85448 -1.15625,-2.33301 -0.5853,-0.3587 -1.3698,-0.53807 -2.35351,-0.53809 -0.35874,2e-5 -0.73748,0.0233 -1.13623,0.0698 -0.39878,0.0466 -0.65773,0.10304 -0.77686,0.16943 l 0,6.2207 c 0.0527,0.0261 0.21874,0.0624 0.49805,0.10889 0.27929,0.0466 0.5983,0.0698 0.95703,0.0698 1.42186,1e-5 2.46516,-0.37857 3.12988,-1.13575 0.55858,-0.62498 0.83788,-1.50226 0.83789,-2.63183 z"
         style="font-size:32px;font-variant:normal;font-weight:bold;font-stretch:normal;letter-spacing:-0.41059262px;font-family:Stone Sans;-inkscape-font-specification:Stone Sans Bold"
         id="path3932" />
      <path
         d="m 186.01085,605.56702 -7.15723,0 0,-23.90528 7.15723,0 z"
         style="font-size:32px;font-variant:normal;font-weight:bold;font-stretch:normal;letter-spacing:-0.41059262px;font-family:Stone Sans;-inkscape-font-specification:Stone Sans Bold"
         id="path3934" />
      <path
         d="m 209.87369,598.36975 c -2e-5,2.39258 -1.01011,4.2334 -3.03027,5.52246 -1.75458,1.11654 -3.92775,1.67481 -6.51953,1.67481 l -10.3877,0 0,-23.90528 10.96582,0 c 2.13996,3e-5 3.88117,0.45185 5.22363,1.35547 1.44855,0.97073 2.17284,2.31317 2.17286,4.02734 -2e-5,1.42255 -0.48505,2.63902 -1.45508,3.64942 -1.23635,1.2754 -2.33954,1.9131 -3.30957,1.91308 0.49152,2e-5 1.07615,0.0866 1.7539,0.25977 1.23631,0.31902 2.23338,0.83074 2.99121,1.53516 1.06313,0.99675 1.59471,2.31934 1.59473,3.96777 z m -7.95508,-10.30762 c -1e-5,-0.9837 -0.37208,-1.69496 -1.11621,-2.13379 -0.5586,-0.33201 -1.28972,-0.49802 -2.19336,-0.49804 -0.35873,2e-5 -0.7308,0.0264 -1.11621,0.0791 -0.1198,0.0137 -0.2793,0.0404 -0.47851,0.0801 l 0,5.60254 c 0.0527,0.0534 0.38475,0.0801 0.99609,0.0801 1.02343,2e-5 1.85415,-0.17967 2.49219,-0.53906 0.94399,-0.53123 1.416,-1.42153 1.41601,-2.6709 z m 0.73731,9.92871 c -2e-5,-1.18293 -0.48504,-2.03352 -1.45508,-2.55175 -0.70444,-0.37239 -1.61492,-0.55859 -2.73145,-0.5586 -0.3724,10e-6 -0.69808,0.0166 -0.97705,0.0498 -0.27898,0.0332 -0.43832,0.0632 -0.47802,0.0898 l 0,6.71875 c 0.0397,0.0137 0.15591,0.0337 0.34863,0.0601 0.1927,0.0264 0.43521,0.0395 0.72754,0.0395 1.16991,0 2.13345,-0.2194 2.89062,-0.6582 1.11653,-0.65104 1.67479,-1.71419 1.67481,-3.18946 z"
         style="font-size:32px;font-variant:normal;font-weight:bold;font-stretch:normal;letter-spacing:-0.41059262px;font-family:Stone Sans;-inkscape-font-specification:Stone Sans Bold"
         id="path3936" />
      <path
         d="m 232.65353,595.71741 c -3e-5,3.61589 -0.96389,6.28092 -2.89161,7.99511 -1.75392,1.56836 -4.32586,2.35254 -7.71582,2.35254 -3.40235,0 -5.96094,-0.87728 -7.67578,-2.63183 -1.54167,-1.58138 -2.3125,-3.77441 -2.3125,-6.5791 l 0,-15.19239 7.11719,0 0,14.09571 c -10e-6,1.59506 0.17284,2.778 0.51856,3.54882 0.51887,1.16993 1.4759,1.75489 2.87109,1.75489 1.55532,0 2.64517,-0.61133 3.26953,-1.83399 0.46548,-0.90429 0.69823,-2.19367 0.69824,-3.86816 l 0,-13.69727 6.1211,0 z"
         style="font-size:32px;font-variant:normal;font-weight:bold;font-stretch:normal;letter-spacing:-0.41059262px;font-family:Stone Sans;-inkscape-font-specification:Stone Sans Bold"
         id="path3938" />
      <path
         d="m 256.57399,605.56702 -4.50586,0 -11.0459,-13.57715 0,13.57715 -5.5625,0 0,-23.94532 4.96485,0 10.44726,13.27832 0,-13.25781 5.70215,0 z"
         style="font-size:32px;font-variant:normal;font-weight:bold;font-stretch:normal;letter-spacing:-0.41059262px;font-family:Stone Sans;-inkscape-font-specification:Stone Sans Bold"
         id="path3940" />
      <path
         d="m 283.71124,605.56702 -7.65625,0 -1.87402,-5.70215 -7.45703,0 -2.3125,5.76172 -5.62305,0 9.79004,-23.96485 6.00098,0 z m -10.62695,-9.4502 -2.43262,-7.47656 -2.73144,7.47656 z"
         style="font-size:32px;font-variant:normal;font-weight:bold;font-stretch:normal;letter-spacing:-0.41059262px;font-family:Stone Sans;-inkscape-font-specification:Stone Sans Bold"
         id="path3942" />
      <path
         d="m 302.19519,605.56702 -15.9707,0 0,-23.90528 7.1582,0 0,19.39942 8.8125,0 z"
         style="font-size:32px;font-variant:normal;font-weight:bold;font-stretch:normal;letter-spacing:-0.41059262px;font-family:Stone Sans;-inkscape-font-specification:Stone Sans Bold"
         id="path3944" />
      <path
         d="m 330.98534,599.22717 c -2e-5,2.16602 -0.8773,3.88705 -2.63184,5.16309 -1.67514,1.22331 -3.84181,1.83496 -6.5,1.83496 -1.40886,0 -2.73796,-0.1862 -3.9873,-0.55859 -0.90365,-0.26563 -1.76108,-0.62435 -2.57227,-1.07618 -0.0397,-0.0267 -0.35189,-0.23274 -0.93652,-0.61816 l 2.17285,-3.8877 c 0.19921,0.29233 0.87727,0.67774 2.03418,1.15625 0.83723,0.34571 1.60123,0.51856 2.29199,0.51856 0.89062,0 1.57519,-0.23926 2.05371,-0.71777 0.42577,-0.42578 0.63866,-0.94434 0.63867,-1.55567 -10e-6,-0.0931 -10e-6,-0.1595 0,-0.19922 -0.10678,-1.14322 -0.8711,-2.33951 -2.29297,-3.58886 -1.28972,-1.11653 -2.57259,-2.23958 -3.84863,-3.36915 -1.35547,-1.48891 -2.0332,-3.10382 -2.0332,-4.84472 0,-2.07355 0.91048,-3.62889 2.73144,-4.66602 1.51497,-0.86391 3.4222,-1.29587 5.72168,-1.2959 0.89062,3e-5 1.85448,0.13284 2.8916,0.39844 0.78384,0.19989 1.53482,0.44599 2.25293,0.73828 0.30533,0.14586 0.61099,0.28551 0.917,0.41895 l -1.89453,3.80762 c -0.23895,-0.21288 -0.72056,-0.42235 -1.44483,-0.62842 -0.7243,-0.20604 -1.33904,-0.30907 -1.84424,-0.30908 -0.69141,10e-6 -1.21648,0.0999 -1.57519,0.2998 -0.45184,0.25262 -0.67775,0.63804 -0.67774,1.15625 -1e-5,0.69077 0.55143,1.4883 1.6543,2.39258 0.5716,0.46486 1.14322,0.93003 1.71484,1.39551 1.58202,1.47527 2.41926,2.25945 2.51172,2.35253 0.8509,0.86395 1.48241,1.69468 1.89453,2.49219 0.50519,0.98373 0.7578,2.04721 0.75782,3.19043 z"
         style="font-size:32px;font-variant:normal;font-weight:bold;font-stretch:normal;letter-spacing:-0.41059262px;font-family:Stone Sans;-inkscape-font-specification:Stone Sans Bold"
         id="path3946" />
      <path
         d="m 354.37747,595.71741 c -2e-5,3.61589 -0.96389,6.28092 -2.8916,7.99511 -1.75392,1.56836 -4.32586,2.35254 -7.71582,2.35254 -3.40235,0 -5.96094,-0.87728 -7.67578,-2.63183 -1.54167,-1.58138 -2.3125,-3.77441 -2.3125,-6.5791 l 0,-15.19239 7.11719,0 0,14.09571 c -10e-6,1.59506 0.17284,2.778 0.51855,3.54882 0.51887,1.16993 1.4759,1.75489 2.87109,1.75489 1.55533,0 2.64517,-0.61133 3.26954,-1.83399 0.46547,-0.90429 0.69822,-2.19367 0.69824,-3.86816 l 0,-13.69727 6.12109,0 z"
         style="font-size:32px;font-variant:normal;font-weight:bold;font-stretch:normal;letter-spacing:-0.41059262px;font-family:Stone Sans;-inkscape-font-specification:Stone Sans Bold"
         id="path3948" />
      <path
         d="m 377.37996,588.52014 c -2e-5,2.67189 -0.95022,4.7256 -2.85059,6.16113 -1.35548,1.02345 -3.11655,1.69467 -5.2832,2.01368 -0.73113,0.10612 -1.68816,0.15918 -2.87109,0.15918 l 0,-4.12696 c 0.2923,10e-6 0.63768,-0.053 1.03613,-0.15918 0.79751,-0.21287 1.44888,-0.56509 1.9541,-1.05664 0.70441,-0.69139 1.05663,-1.61522 1.05664,-2.77148 -10e-6,-0.95702 -0.39878,-1.64842 -1.19629,-2.07422 -0.59767,-0.31899 -1.38836,-0.4785 -2.37207,-0.47852 -0.50522,2e-5 -0.93393,0.0267 -1.28613,0.0801 -0.35222,0.0534 -0.56153,0.1 -0.62793,0.13965 l 0,19.16016 -7.17773,0 0,-23.90528 11.56347,0 c 2.23306,3e-5 4.08071,0.54495 5.54297,1.63477 1.67446,1.24937 2.5117,2.99058 2.51172,5.22363 z"
         style="font-size:32px;font-variant:normal;font-weight:bold;font-stretch:normal;letter-spacing:-0.41059262px;font-family:Stone Sans;-inkscape-font-specification:Stone Sans Bold"
         id="path3950" />
      <path
         d="m 400.65981,605.24768 -7.55665,0.77832 -3.9082,-9.86914 -1.97363,0 0,9.41016 -7.15723,0 0,-23.90528 11.54395,0 c 2.20636,3e-5 4.02049,0.5316 5.44238,1.59473 1.62172,1.20966 2.4326,2.93752 2.43262,5.18359 -2e-5,1.39585 -0.3786,2.7051 -1.13574,3.92774 -0.82424,1.31642 -1.92776,2.24024 -3.31055,2.77148 z m -7.95508,-16.50781 c -2e-5,-1.07681 -0.38543,-1.85448 -1.15625,-2.33301 -0.5853,-0.3587 -1.36981,-0.53807 -2.35352,-0.53809 -0.35873,2e-5 -0.73748,0.0233 -1.13623,0.0698 -0.39877,0.0466 -0.65772,0.10304 -0.77685,0.16943 l 0,6.2207 c 0.0527,0.0261 0.21874,0.0624 0.49804,0.10889 0.27929,0.0466 0.5983,0.0698 0.95703,0.0698 1.42187,1e-5 2.46516,-0.37857 3.12989,-1.13575 0.55858,-0.62498 0.83787,-1.50226 0.83789,-2.63183 z"
         style="font-size:32px;font-variant:normal;font-weight:bold;font-stretch:normal;letter-spacing:-0.41059262px;font-family:Stone Sans;-inkscape-font-specification:Stone Sans Bold"
         id="path3952" />
      <path
         d="m 419.3703,605.60705 -16.08887,0 0,-23.94531 14.6543,0 0,4.46582 -7.45703,0 0,4.66602 7.2373,0 0,4.50586 -7.15722,0 0,5.76172 8.81152,0 z"
         style="font-size:32px;font-variant:normal;font-weight:bold;font-stretch:normal;letter-spacing:-0.41059262px;font-family:Stone Sans;-inkscape-font-specification:Stone Sans Bold"
         id="path3954" />
      <path
         d="m 448.33862,605.56702 -6.79883,0 0,-16.24903 -5.54296,16.24903 -3.03028,0 -5.70215,-16.48829 0,16.48829 -5.48242,0 0,-23.94532 8.41309,0 5.06445,14.75391 4.86426,-14.75391 8.21484,0 z"
         style="font-size:32px;font-variant:normal;font-weight:bold;font-stretch:normal;letter-spacing:-0.41059262px;font-family:Stone Sans;-inkscape-font-specification:Stone Sans Bold"
         id="path3956" />
      <path
         d="m 474.90363,593.76428 c -3e-5,3.41603 -1.05667,6.30014 -3.16993,8.65235 -2.23309,2.48567 -5.09083,3.72851 -8.57324,3.72851 -3.74806,0 -6.73861,-1.2692 -8.97168,-3.80762 -2.07357,-2.35286 -3.11035,-5.31053 -3.11035,-8.87304 0,-3.36262 1.16308,-6.21353 3.48926,-8.55274 2.32616,-2.33917 5.2438,-3.50876 8.75293,-3.50879 3.44204,3e-5 6.25974,1.23603 8.45312,3.70801 2.08657,2.35288 3.12986,5.23732 3.12989,8.65332 z m -7.55567,-0.17969 c -2e-5,-1.99412 -0.27248,-3.59568 -0.81738,-4.80468 -0.71812,-1.58202 -1.85483,-2.37303 -3.41016,-2.37305 -1.68816,2e-5 -2.91082,0.79103 -3.66797,2.37305 -0.59831,1.23569 -0.89747,2.86394 -0.89746,4.88476 -10e-6,2.80405 0.45182,4.81772 1.35547,6.04102 0.73111,0.99675 1.77473,1.49512 3.13086,1.49511 1.19595,1e-5 2.13963,-0.40559 2.83106,-1.21679 0.57159,-0.67773 0.97687,-1.65462 1.21582,-2.93067 0.17316,-0.93033 0.25974,-2.08657 0.25976,-3.46875 z"
         style="font-size:32px;font-variant:normal;font-weight:bold;font-stretch:normal;letter-spacing:-0.41059262px;font-family:Stone Sans;-inkscape-font-specification:Stone Sans Bold"
         id="path3958" />
      <path
         d="m 503.91544,605.60705 -16.08887,0 0,-23.94531 14.6543,0 0,4.46582 -7.45704,0 0,4.66602 7.23731,0 0,4.50586 -7.15723,0 0,5.76172 8.81153,0 z"
         style="font-size:32px;font-variant:normal;font-weight:bold;font-stretch:normal;letter-spacing:-0.41059262px;font-family:Stone Sans;-inkscape-font-specification:Stone Sans Bold"
         id="path3960" />
      <path
         d="m 522.61618,605.56702 -15.9707,0 0,-23.90528 7.1582,0 0,19.39942 8.8125,0 z"
         style="font-size:32px;font-variant:normal;font-weight:bold;font-stretch:normal;letter-spacing:-0.41059262px;font-family:Stone Sans;-inkscape-font-specification:Stone Sans Bold"
         id="path3962" />
      <path
         d="m 541.46924,605.60705 -16.08887,0 0,-23.94531 14.6543,0 0,4.46582 -7.45703,0 0,4.66602 7.2373,0 0,4.50586 -7.15723,0 0,5.76172 8.81153,0 z"
         style="font-size:32px;font-variant:normal;font-weight:bold;font-stretch:normal;letter-spacing:-0.41059262px;font-family:Stone Sans;-inkscape-font-specification:Stone Sans Bold"
         id="path3964" />
      <path
         d="m 563.9776,605.16858 c -0.78388,0.2526 -1.42841,0.43847 -1.93359,0.55762 -1.52867,0.37239 -2.89781,0.55859 -4.10743,0.55859 -3.80144,0 -7.0778,-1.15625 -9.8291,-3.46875 -2.89779,-2.43294 -4.34668,-5.49023 -4.34668,-9.17188 0,-3.60219 1.44206,-6.55955 4.32618,-8.87207 2.69855,-2.16664 5.9352,-3.24997 9.70996,-3.25 2.02016,3e-5 3.6087,0.18623 4.76562,0.5586 0.85024,0.41213 1.31541,0.63121 1.39551,0.65722 l -1.81445,4.22754 c -0.46552,-0.11977 -0.84442,-0.20636 -1.13672,-0.25976 -0.87697,-0.17251 -1.63446,-0.25877 -2.27246,-0.25879 -2.33986,2e-5 -4.19435,0.73114 -5.56348,2.19336 -1.2754,1.36915 -1.9131,3.12371 -1.91309,5.26367 -10e-6,2.11329 0.63769,3.84766 1.91309,5.20312 1.36913,1.44923 3.23664,2.17384 5.60254,2.17383 0.638,10e-6 1.32924,-0.0599 2.07373,-0.17968 0.74445,-0.11979 1.36928,-0.26595 1.87451,-0.43848 z"
         style="font-size:32px;font-variant:normal;font-weight:bold;font-stretch:normal;letter-spacing:-0.41059262px;font-family:Stone Sans;-inkscape-font-specification:Stone Sans Bold"
         id="path3966" />
      <path
         d="m 587.99182,586.1676 -7.05762,0 0,19.39942 -7.15722,0 0,-19.39942 -6.93848,0 0,-4.50586 21.15332,0 z"
         style="font-size:32px;font-variant:normal;font-weight:bold;font-stretch:normal;letter-spacing:-0.41059262px;font-family:Stone Sans;-inkscape-font-specification:Stone Sans Bold"
         id="path3968" />
      <path
         d="m 614.27945,593.76428 c -3e-5,3.41603 -1.05667,6.30014 -3.16992,8.65235 -2.2331,2.48567 -5.09084,3.72851 -8.57324,3.72851 -3.74806,0 -6.73862,-1.2692 -8.97168,-3.80762 -2.07357,-2.35286 -3.11036,-5.31053 -3.11036,-8.87304 0,-3.36262 1.16309,-6.21353 3.48926,-8.55274 2.32617,-2.33917 5.24381,-3.50876 8.75293,-3.50879 3.44204,3e-5 6.25975,1.23603 8.45313,3.70801 2.08656,2.35288 3.12985,5.23732 3.12988,8.65332 z m -7.55566,-0.17969 c -2e-5,-1.99412 -0.27248,-3.59568 -0.81739,-4.80468 -0.71811,-1.58202 -1.85483,-2.37303 -3.41015,-2.37305 -1.68817,2e-5 -2.91082,0.79103 -3.66797,2.37305 -0.59832,1.23569 -0.89747,2.86394 -0.89746,4.88476 -1e-5,2.80405 0.45181,4.81772 1.35547,6.04102 0.7311,0.99675 1.77472,1.49512 3.13085,1.49511 1.19595,1e-5 2.13964,-0.40559 2.83106,-1.21679 0.5716,-0.67773 0.97687,-1.65462 1.21582,-2.93067 0.17316,-0.93033 0.25975,-2.08657 0.25977,-3.46875 z"
         style="font-size:32px;font-variant:normal;font-weight:bold;font-stretch:normal;letter-spacing:-0.41059262px;font-family:Stone Sans;-inkscape-font-specification:Stone Sans Bold"
         id="path3970" />
      <path
         d="m 638.08078,605.24768 -7.55664,0.77832 -3.9082,-9.86914 -1.97364,0 0,9.41016 -7.15722,0 0,-23.90528 11.54394,0 c 2.20637,3e-5 4.02049,0.5316 5.44239,1.59473 1.62172,1.20966 2.43259,2.93752 2.43261,5.18359 -2e-5,1.39585 -0.3786,2.7051 -1.13574,3.92774 -0.82424,1.31642 -1.92775,2.24024 -3.31055,2.77148 z m -7.95508,-16.50781 c -1e-5,-1.07681 -0.38543,-1.85448 -1.15625,-2.33301 -0.5853,-0.3587 -1.3698,-0.53807 -2.35351,-0.53809 -0.35874,2e-5 -0.73748,0.0233 -1.13623,0.0698 -0.39878,0.0466 -0.65773,0.10304 -0.77686,0.16943 l 0,6.2207 c 0.0527,0.0261 0.21874,0.0624 0.49805,0.10889 0.27928,0.0466 0.59829,0.0698 0.95703,0.0698 1.42186,1e-5 2.46515,-0.37857 3.12988,-1.13575 0.55858,-0.62498 0.83788,-1.50226 0.83789,-2.63183 z"
         style="font-size:32px;font-variant:normal;font-weight:bold;font-stretch:normal;letter-spacing:-0.41059262px;font-family:Stone Sans;-inkscape-font-specification:Stone Sans Bold"
         id="path3972" />
      <path
         d="m 664.50809,605.56702 -7.65625,0 -1.87403,-5.70215 -7.45703,0 -2.3125,5.76172 -5.62304,0 9.79003,-23.96485 6.00098,0 z m -10.62696,-9.4502 -2.43261,-7.47656 -2.73145,7.47656 z"
         style="font-size:32px;font-variant:normal;font-weight:bold;font-stretch:normal;letter-spacing:-0.41059262px;font-family:Stone Sans;-inkscape-font-specification:Stone Sans Bold"
         id="path3974" />
      <path
         d="m 682.992,605.56702 -15.9707,0 0,-23.90528 7.1582,0 0,19.39942 8.8125,0 z"
         style="font-size:32px;font-variant:normal;font-weight:bold;font-stretch:normal;letter-spacing:-0.41059262px;font-family:Stone Sans;-inkscape-font-specification:Stone Sans Bold"
         id="path3976" />
    </g>
  </g>
  <g
     inkscape:groupmode="layer"
     id="layer3"
     inkscape:label="mapa de bolivia"
     style="display:inline">
    <path
       style="fill:#ffffff;fill-opacity:1;stroke:#000000;stroke-width:1px;stroke-linecap:butt;stroke-linejoin:miter;stroke-opacity:0"
       d="m 252.65142,533.39885 c 0,0 0.54101,1.21727 2.29929,0.67626 1.75828,-0.54101 3.51657,-2.5698 5.00434,-4.46333 1.48778,-1.89353 2.16404,-2.43454 2.16404,-2.43454 0,0 0.13525,-0.67627 2.16404,0.40575 2.02878,1.08202 3.24605,0.67627 4.19282,0.54101 0.94677,-0.13525 2.97555,-0.40575 2.97555,0.54101 0,0.94677 0.81152,3.65182 1.35253,4.05757 0.54101,0.40576 1.08202,-2.43454 1.75828,-3.1108 0.67626,-0.67626 1.75828,-2.5698 3.65181,-2.70505 1.89353,-0.13525 3.11081,0.54101 3.92232,0.67626 0.81151,0.13526 0.67626,2.43455 1.48778,1.21728 0.81151,-1.21728 2.56979,-4.86909 2.56979,-6.35687 0,-1.48777 0,-2.70504 0.67626,-4.19282 0.67626,-1.48778 0.40576,-1.35252 1.21727,-2.43454 0.81152,-1.08202 1.62303,-3.38131 2.70505,-3.38131 1.08202,0 3.51656,-0.13525 4.46333,-0.81152 0.94677,-0.67626 3.78707,-0.94676 6.49211,-1.08201 2.70505,-0.13526 5.6806,1.35252 6.35686,2.02878 0.67627,0.67626 2.2993,1.89353 2.2993,2.97555 0,1.08202 0.94676,1.08202 0.94676,1.08202 l 2.02879,-2.16404 c 0,0 -2.02879,-0.94676 -1.75828,-1.75828 0.2705,-0.81151 2.56979,-2.8403 2.8403,-4.59858 0.2705,-1.75828 0.54101,-6.62736 0.13525,-7.84463 -0.40576,-1.21728 -1.89353,-2.29929 -3.11081,-3.11081 -1.21727,-0.81151 -2.02878,-2.70505 -1.21727,-3.78707 0.81152,-1.08201 0.81152,-2.02878 0.81152,-2.02878 0,0 -11.22595,-0.13525 -11.76696,-0.54101 -0.54101,-0.40576 -0.54101,-3.24606 -0.54101,-3.24606 l 0.13525,-7.57413 c 0,0 -1.89353,-2.56979 -1.21727,-2.70505 0.67626,-0.13525 0.81152,-2.16403 -0.2705,-2.70504 -1.08202,-0.54101 -2.43454,-1.75829 -3.51656,-1.89354 -1.08202,-0.13525 -4.32808,-0.40575 -5.00434,-0.40575 -0.67626,0 -0.67626,-1.62303 -4.32808,-2.43455 -3.65181,-0.81151 -2.97555,-1.35252 -3.38131,-1.75828 -0.40575,-0.40576 -3.24605,-1.89353 -5.13959,-2.16404 -1.89353,-0.2705 -3.51656,-1.75828 -5.41009,-2.8403 -1.89353,-1.08201 -2.5698,-2.56979 -3.11081,-4.32807 -0.54101,-1.75828 -0.81151,-3.65182 -0.54101,-5.00434 0.27051,-1.35252 1.21728,-2.43454 1.21728,-3.38131 0,-0.94676 0.54101,-2.43454 -3.78707,-2.29929 -4.32808,0.13525 -4.73383,1.21727 -5.6806,1.48778 -0.94677,0.2705 -4.73383,3.24605 -6.08636,3.51656 -1.35252,0.2705 -2.8403,0.2705 -2.97555,1.08202 -0.13525,0.81151 -1.08202,2.29929 -2.16404,2.16404 -1.08202,-0.13526 -3.78706,-0.54101 -4.59858,-0.67627 -0.81151,-0.13525 -2.8403,0.27051 -2.8403,0.27051 l 5.95111,9.73817 c 0,0 0.2705,1.21727 -0.54101,1.89353 -0.81152,0.67626 -1.08202,2.70505 -1.08202,4.46333 0,1.75828 -0.27051,5.6806 -0.81151,6.22161 -0.54101,0.54101 -2.16404,2.97555 -1.75829,4.19282 0.40576,1.21727 0.94677,2.70505 0,2.70505 -0.94676,0 -1.62302,-2.02879 -1.89353,-1.62303 -0.2705,0.40576 -2.16404,4.19283 -1.35252,4.59858 0.81151,0.40576 1.08202,-0.13525 1.89353,0.40576 0.81151,0.54101 1.35252,1.62303 2.16404,1.75828 0.81151,0.13525 2.97555,2.02879 1.75828,2.29929 -1.21727,0.27051 -1.08202,1.35252 -2.02879,2.16404 -0.94676,0.81151 -2.29929,2.56979 -1.62302,3.24606 0.67626,0.67626 2.70504,3.78706 3.1108,5.41009 0.40576,1.62303 1.21727,2.97555 1.21727,3.51656 0,0.54101 0.67626,2.70505 1.21727,2.70505 0.54101,0 2.02879,1.08202 1.75828,1.62303 -0.2705,0.54101 -0.94676,1.62303 -1.08202,2.29929 -0.13525,0.67626 -0.2705,2.70504 -0.13525,4.32807 0.13525,1.62303 0.94677,2.02879 2.16404,3.51656 1.21727,1.48778 1.08202,2.43455 1.21727,3.65182 0.13525,1.21727 0.54101,2.29929 0.94677,3.92232 0.40575,1.62303 0.40575,4.19282 1.48777,4.46333 z"
       id="path3868"
       inkscape:connector-curvature="0" />
    <path
       style="fill:#ffffff;fill-opacity:1;stroke:#000000;stroke-width:1px;stroke-linecap:butt;stroke-linejoin:miter;stroke-opacity:1"
       d="m 366.08829,511.61772 22.18152,0 31.87429,-9.69277 -7.82878,-24.04551 -51.63261,16.40314 z"
       id="path3874"
       inkscape:connector-curvature="0" />
  </g>
  <g
     inkscape:groupmode="layer"
     id="layer4"
     inkscape:label="Cuadraditos whipala"
     style="display:none">
    <rect
       style="fill:#057628;fill-opacity:1;stroke:#000000;stroke-opacity:0"
       id="rect3882"
       width="18.405252"
       height="18.742964"
       x="590.8255"
       y="428.10327" />
    <rect
       style="fill:#0d5297;fill-opacity:1;stroke:#000000;stroke-opacity:0"
       id="rect3882-4"
       width="18.405252"
       height="18.742964"
       x="572.42395"
       y="428.10327" />
    <rect
       style="fill:#821360;fill-opacity:1;stroke:#000000;stroke-opacity:0"
       id="rect3882-4-0"
       width="18.405252"
       height="18.742964"
       x="554.02045"
       y="428.10327" />
    <rect
       style="fill:#cf0e15;fill-opacity:1;stroke:#000000;stroke-opacity:0"
       id="rect3882-4-0-9"
       width="18.405252"
       height="18.742964"
       x="535.63007"
       y="428.10327" />
    <rect
       style="fill:#f7ec00;fill-opacity:1;stroke:#000000;stroke-opacity:0"
       id="rect3882-4-0-9-4-8"
       width="18.405252"
       height="18.742964"
       x="498.81943"
       y="428.10193" />
    <rect
       style="fill:#ed440b;fill-opacity:1;stroke:#000000;stroke-opacity:0"
       id="rect3882-4-0-9-4-82"
       width="18.405252"
       height="18.742964"
       x="517.22626"
       y="428.10239" />
    <rect
       style="fill:#0d5297;fill-opacity:1;stroke:#000000;stroke-opacity:0"
       id="rect3882-4-5"
       width="18.405252"
       height="18.742964"
       x="590.83295"
       y="446.82462" />
    <rect
       style="fill:#821360;fill-opacity:1;stroke:#000000;stroke-opacity:0"
       id="rect3882-4-0-1"
       width="18.405252"
       height="18.742964"
       x="572.42944"
       y="446.82462" />
    <rect
       style="fill:#cf0e15;fill-opacity:1;stroke:#000000;stroke-opacity:0"
       id="rect3882-4-0-9-7"
       width="18.405252"
       height="18.742964"
       x="554.03906"
       y="446.82462" />
    <rect
       style="fill:#f7ec00;fill-opacity:1;stroke:#000000;stroke-opacity:0"
       id="rect3882-4-0-9-4-8-1"
       width="18.405252"
       height="18.742964"
       x="517.22839"
       y="446.82327" />
    <rect
       style="fill:#ed440b;fill-opacity:1;stroke:#000000;stroke-opacity:0"
       id="rect3882-4-0-9-4-82-1"
       width="18.405252"
       height="18.742964"
       x="535.63525"
       y="446.82373" />
    <rect
       style="fill:#821360;fill-opacity:1;stroke:#000000;stroke-opacity:0"
       id="rect3882-4-0-1-2"
       width="18.405252"
       height="18.742964"
       x="590.82574"
       y="465.55359" />
    <rect
       style="fill:#cf0e15;fill-opacity:1;stroke:#000000;stroke-opacity:0"
       id="rect3882-4-0-9-7-7"
       width="18.405252"
       height="18.742964"
       x="572.43536"
       y="465.55359" />
    <rect
       style="fill:#f7ec00;fill-opacity:1;stroke:#000000;stroke-opacity:0"
       id="rect3882-4-0-9-4-8-1-6"
       width="18.405252"
       height="18.742964"
       x="535.62469"
       y="465.55225" />
    <rect
       style="fill:#ed440b;fill-opacity:1;stroke:#000000;stroke-opacity:0"
       id="rect3882-4-0-9-4-82-1-1"
       width="18.405252"
       height="18.742964"
       x="554.03156"
       y="465.5527" />
    <rect
       style="fill:#cf0e15;fill-opacity:1;stroke:#000000;stroke-opacity:0"
       id="rect3882-4-0-9-7-7-3"
       width="18.405252"
       height="18.742964"
       x="590.83313"
       y="484.28604" />
    <rect
       style="fill:#f7ec00;fill-opacity:1;stroke:#000000;stroke-opacity:0"
       id="rect3882-4-0-9-4-8-1-6-2"
       width="18.405252"
       height="18.742964"
       x="554.02246"
       y="484.2847" />
    <rect
       style="fill:#ed440b;fill-opacity:1;stroke:#000000;stroke-opacity:0"
       id="rect3882-4-0-9-4-82-1-1-2"
       width="18.405252"
       height="18.742964"
       x="572.42932"
       y="484.28516" />
    <rect
       style="fill:#f7ec00;fill-opacity:1;stroke:#000000;stroke-opacity:0"
       id="rect3882-4-0-9-4-8-1-6-2-5"
       width="18.405252"
       height="18.742964"
       x="572.42511"
       y="503.0116" />
    <rect
       style="fill:#ed440b;fill-opacity:1;stroke:#000000;stroke-opacity:0"
       id="rect3882-4-0-9-4-82-1-1-2-7"
       width="18.405252"
       height="18.742964"
       x="590.83197"
       y="503.01202" />
    <rect
       style="fill:#0d5297;fill-opacity:1;stroke:#000000;stroke-width:1;stroke-opacity:0"
       id="rect3882-4-5-5-4-1-6"
       width="18.405252"
       height="18.742964"
       x="535.62585"
       y="521.76593" />
    <rect
       style="fill:#821360;fill-opacity:1;stroke:#000000;stroke-width:1;stroke-opacity:0"
       id="rect3882-4-0-1-2-2-6-1"
       width="18.405252"
       height="18.742964"
       x="517.22235"
       y="521.76593" />
    <rect
       style="fill:#cf0e15;fill-opacity:1;stroke:#000000;stroke-width:1;stroke-opacity:0"
       id="rect3882-4-0-9-7-7-3-8-8"
       width="18.405252"
       height="18.742964"
       x="498.83231"
       y="521.76593" />
    <rect
       style="fill:#ed440b;fill-opacity:1;stroke:#000000;stroke-width:1;stroke-opacity:0"
       id="rect3882-4-0-9-4-82-1-1-2-7-2"
       width="18.405252"
       height="18.742964"
       x="480.42853"
       y="521.76508" />
    <rect
       style="fill:#000000;fill-opacity:0.01960784;stroke:#000000;stroke-opacity:0"
       id="rect3882-4-5-5-4-1-6-7"
       width="18.405252"
       height="18.742964"
       x="590.86249"
       y="540.4975" />
    <g
       id="g4200"
       transform="translate(7.9227905,0)">
      <rect
         y="540.4975"
         x="546.09967"
         height="18.742964"
         width="18.405252"
         id="rect3882-4-5-5-4-1-6-9"
         style="fill:#0d5297;fill-opacity:1;stroke:#000000;stroke-opacity:0" />
      <rect
         y="540.4975"
         x="527.69617"
         height="18.742964"
         width="18.405252"
         id="rect3882-4-0-1-2-2-6-1-5"
         style="fill:#821360;fill-opacity:1;stroke:#000000;stroke-opacity:0" />
      <rect
         y="540.4975"
         x="509.30579"
         height="18.742964"
         width="18.405252"
         id="rect3882-4-0-9-7-7-3-8-8-4"
         style="fill:#cf0e15;fill-opacity:1;stroke:#000000;stroke-opacity:0" />
      <rect
         y="540.4975"
         x="472.49512"
         height="18.742964"
         width="18.405252"
         id="rect3882-4-0-9-4-8-1-6-2-5-9-3"
         style="fill:#f7ec00;fill-opacity:1;stroke:#000000;stroke-opacity:0" />
      <rect
         y="540.4975"
         x="490.90198"
         height="18.742964"
         width="18.405252"
         id="rect3882-4-0-9-4-82-1-1-2-7-2-1"
         style="fill:#ed440b;fill-opacity:1;stroke:#000000;stroke-opacity:0" />
    </g>
    <rect
       style="fill:#057628;fill-opacity:1;stroke:#000000;stroke-opacity:0"
       id="rect3882-2"
       width="18.405252"
       height="18.742964"
       x="572.42511"
       y="540.4975" />
    <rect
       style="fill:#ffffff;fill-opacity:1;stroke:#000000;stroke-opacity:0"
       id="rect3882-4-5-5-4-1-6-7-3"
       width="18.405252"
       height="18.742964"
       x="572.42511"
       y="521.75421" />
    <rect
       style="fill:#ffffff;fill-opacity:1;stroke:#000000;stroke-opacity:0"
       id="rect3882-4-5-5-4-1-6-7-34"
       width="18.405252"
       height="18.742964"
       x="554.02246"
       y="503.01294" />
    <rect
       style="fill:#ffffff;fill-opacity:1;stroke:#000000;stroke-opacity:0"
       id="rect3882-4-5-5-4-1-6-7-1"
       width="18.405252"
       height="18.742964"
       x="535.62469"
       y="484.28604" />
    <rect
       style="fill:#ffffff;fill-opacity:1;stroke:#000000;stroke-opacity:0"
       id="rect3882-4-5-5-4-1-6-7-13"
       width="18.405252"
       height="18.742964"
       x="517.22626"
       y="465.55359" />
    <rect
       style="fill:#ffffff;fill-opacity:1;stroke:#000000;stroke-opacity:0"
       id="rect3882-4-5-5-4-1-6-7-13-8"
       width="18.405252"
       height="18.742964"
       x="498.81943"
       y="446.82462" />
    <rect
       style="fill:#ffffff;fill-opacity:1;stroke:#000000;stroke-opacity:0;display:inline"
       id="rect3882-4-5-5-4-1-6-7-7"
       width="18.405252"
       height="18.742964"
       x="590.86249"
       y="540.4975" />
    <rect
       style="fill:#057628;fill-opacity:1;stroke:#000000;stroke-opacity:0;display:inline"
       id="rect3882-2-4"
       width="18.405252"
       height="18.742964"
       x="554.02319"
       y="521.76477" />
    <rect
       style="fill:#0d5297;fill-opacity:1;stroke:#000000;stroke-width:1;stroke-opacity:0;display:inline"
       id="rect3882-4-5-5-4-1-6-1"
       width="18.405252"
       height="18.742964"
       x="517.22266"
       y="503.02823" />
    <rect
       style="fill:#821360;fill-opacity:1;stroke:#000000;stroke-width:1;stroke-opacity:0;display:inline"
       id="rect3882-4-0-1-2-2-6-1-9"
       width="18.405252"
       height="18.742964"
       x="498.81915"
       y="503.02823" />
    <rect
       style="fill:#cf0e15;fill-opacity:1;stroke:#000000;stroke-width:1;stroke-opacity:0;display:inline"
       id="rect3882-4-0-9-7-7-3-8-8-8"
       width="18.405252"
       height="18.742964"
       x="480.42908"
       y="503.02823" />
    <rect
       style="fill:#057628;fill-opacity:1;stroke:#000000;stroke-opacity:0;display:inline"
       id="rect3882-2-4-6"
       width="18.405252"
       height="18.742964"
       x="535.62"
       y="503.02707" />
    <rect
       style="fill:#0d5297;fill-opacity:1;stroke:#000000;stroke-width:1;stroke-opacity:0;display:inline"
       id="rect3882-4-5-5-4-1-6-1-5"
       width="18.405252"
       height="18.742964"
       x="498.82391"
       y="484.29205" />
    <rect
       style="fill:#821360;fill-opacity:1;stroke:#000000;stroke-width:1;stroke-opacity:0;display:inline"
       id="rect3882-4-0-1-2-2-6-1-9-0"
       width="18.405252"
       height="18.742964"
       x="480.42038"
       y="484.29205" />
    <rect
       style="fill:#057628;fill-opacity:1;stroke:#000000;stroke-opacity:0;display:inline"
       id="rect3882-2-4-6-2"
       width="18.405252"
       height="18.742964"
       x="517.22125"
       y="484.29089" />
    <rect
       style="fill:#0d5297;fill-opacity:1;stroke:#000000;stroke-width:1;stroke-opacity:0;display:inline"
       id="rect3882-4-5-5-4-1-6-1-5-8"
       width="18.405252"
       height="18.742964"
       x="480.44336"
       y="465.55878" />
    <rect
       style="fill:#057628;fill-opacity:1;stroke:#000000;stroke-opacity:0;display:inline"
       id="rect3882-2-4-6-2-6"
       width="18.405252"
       height="18.742964"
       x="498.8407"
       y="465.55762" />
    <rect
       style="fill:#057628;fill-opacity:1;stroke:#000000;stroke-opacity:0;display:inline"
       id="rect3882-2-4-6-2-6-2"
       width="18.405252"
       height="18.742964"
       x="480.41437"
       y="446.82788" />
    <rect
       style="fill:#ffffff;fill-opacity:1;stroke:#000000;stroke-opacity:0;display:inline"
       id="rect3882-4-5-5-4-1-6-7-13-8-4"
       width="18.405252"
       height="18.742964"
       x="480.40863"
       y="428.10397" />
    <rect
       style="fill:#f7ec00;fill-opacity:1;stroke:#000000;stroke-opacity:0;display:inline"
       id="rect3882-4-0-9-4-8-1-6-2-5-8"
       width="18.405252"
       height="18.742964"
       x="590.82745"
       y="521.75262" />
  </g>
  <g
     style="display:inline"
     inkscape:label="Cuadraditos whipala copia"
     id="g4676"
     inkscape:groupmode="layer">
    <path
       style="fill:#057628;fill-opacity:1;stroke:#000000;stroke-width:0.95804721;stroke-opacity:0"
       d="m 591.409,428.07672 17.83832,0 0,17.75006 -17.83832,0 z"
       id="rect4678" />
    <path
       style="fill:#0d5297;fill-opacity:1;stroke:#000000;stroke-width:0.95804721;stroke-opacity:0"
       d="m 573.57422,428.07672 17.83832,0 0,17.75006 -17.83832,0 z"
       id="rect4680" />
    <path
       style="fill:#821360;fill-opacity:1;stroke:#000000;stroke-width:0.95804721;stroke-opacity:0"
       d="m 555.73761,428.07672 17.83832,0 0,17.75006 -17.83832,0 z"
       id="rect4682" />
    <path
       style="fill:#cf0e15;fill-opacity:1;stroke:#000000;stroke-width:0.95804721;stroke-opacity:0"
       d="m 537.90625,428.0625 0,10 c 2.24284,2.26483 4.29777,4.84831 6.09375,7.75 l 11.75,0 0,-17.75 -17.84375,0 z"
       id="rect4684"
       inkscape:connector-curvature="0" />
    <path
       style="fill:#ed440b;fill-opacity:1;stroke:#000000;stroke-width:0.95804721;stroke-opacity:0"
       d="m 522.40625,428.0625 c 0.39857,0.13215 0.74724,0.266 1.09375,0.40625 5.15482,2.08648 10.12547,5.271 14.40625,9.59375 l 0,-10 -15.5,0 z"
       id="rect4688"
       inkscape:connector-curvature="0" />
    <path
       style="fill:#0d5297;fill-opacity:1;stroke:#000000;stroke-width:0.95804721;stroke-opacity:0"
       d="m 591.4162,445.8063 17.83832,0 0,17.75007 -17.83832,0 z"
       id="rect4690" />
    <path
       style="fill:#821360;fill-opacity:1;stroke:#000000;stroke-width:0.95804721;stroke-opacity:0"
       d="m 573.57959,445.8063 17.83832,0 0,17.75007 -17.83832,0 z"
       id="rect4692" />
    <path
       style="fill:#cf0e15;fill-opacity:1;stroke:#000000;stroke-width:0.95804721;stroke-opacity:0"
       d="m 555.75568,445.8063 17.83832,0 0,17.75007 -17.83832,0 z"
       id="rect4694" />
    <path
       style="fill:#ed440b;fill-opacity:1;stroke:#000000;stroke-width:0.95804721;stroke-opacity:0"
       d="m 544,445.8125 c 3.07024,4.96047 5.39279,10.86576 6.59375,17.75 l 5.15625,0 0,-17.75 -11.75,0 z"
       id="rect4698"
       inkscape:connector-curvature="0" />
    <path
       style="fill:#821360;fill-opacity:1;stroke:#000000;stroke-width:0.95804721;stroke-opacity:0"
       d="m 591.40918,463.54312 17.83832,0 0,17.75006 -17.83832,0 z"
       id="rect4700" />
    <path
       style="fill:#cf0e15;fill-opacity:1;stroke:#000000;stroke-width:0.95804721;stroke-opacity:0"
       d="m 573.58533,463.54312 17.83832,0 0,17.75006 -17.83832,0 z"
       id="rect4702" />
    <path
       style="fill:#f7ec00;fill-opacity:1;stroke:#000000;stroke-width:0.95804721;stroke-opacity:0"
       d="m 550.59375,463.53125 c 0.22852,1.30579 0.41648,2.62325 0.5625,4 0.52117,4.91386 0.4535,9.49923 -0.0625,13.75 l 4.65625,0 0,-17.75 -5.15625,0 z"
       id="rect4704"
       inkscape:connector-curvature="0" />
    <path
       style="fill:#ed440b;fill-opacity:1;stroke:#000000;stroke-width:0.95804721;stroke-opacity:0"
       d="m 555.74835,463.54227 17.83833,0 0,17.75006 -17.83833,0 z"
       id="rect4706" />
    <path
       style="fill:#cf0e15;fill-opacity:1;stroke:#000000;stroke-width:0.95804721;stroke-opacity:0"
       d="m 591.41638,481.2832 17.83833,0 0,17.75006 -17.83833,0 z"
       id="rect4708" />
    <path
       style="fill:#f7ec00;fill-opacity:1;stroke:#000000;stroke-width:0.95804721;stroke-opacity:0"
       d="m 555.73956,481.28195 17.83833,0 0,17.75006 -17.83833,0 z"
       id="rect4710" />
    <path
       style="fill:#ed440b;fill-opacity:1;stroke:#000000;stroke-width:0.95804721;stroke-opacity:0"
       d="m 573.57947,481.28238 17.83832,0 0,17.75006 -17.83832,0 z"
       id="rect4712" />
    <path
       style="fill:#f7ec00;fill-opacity:1;stroke:#000000;stroke-width:0.95804721;stroke-opacity:0"
       d="m 573.57538,499.01678 17.83832,0 0,17.75007 -17.83832,0 z"
       id="rect4714" />
    <path
       style="fill:#ed440b;fill-opacity:1;stroke:#000000;stroke-width:0.95804721;stroke-opacity:0"
       d="m 591.41522,499.01718 17.83833,0 0,17.75006 -17.83833,0 z"
       id="rect4716" />
    <path
       style="fill:#0d5297;fill-opacity:1;stroke:#000000;stroke-width:0.95804721;stroke-opacity:0"
       d="m 537.90961,516.77759 17.83832,0 0,17.75006 -17.83832,0 z"
       id="rect4718" />
    <path
       style="fill:#821360;fill-opacity:1;stroke:#000000;stroke-width:0.95804721;stroke-opacity:0"
       d="m 528.96875,516.78125 c -3.16689,1.72759 -6.28228,2.79276 -8.90625,3.4375 l 0,14.3125 17.84375,0 0,-17.75 -8.9375,0 z"
       id="rect4720"
       inkscape:connector-curvature="0" />
    <path
       style="fill:#cf0e15;fill-opacity:1;stroke:#000000;stroke-width:0.95804721;stroke-opacity:0"
       d="m 520.09375,520.1875 c -4.13987,1.02163 -7.0625,1.03125 -7.0625,1.03125 l -10.78125,0 0,13.3125 17.84375,0 0,-14.34375 z"
       id="rect4722"
       inkscape:connector-curvature="0" />
    <path
       style="fill:#ed440b;fill-opacity:1;stroke:#000000;stroke-width:0.95804721;stroke-opacity:0"
       d="m 485.375,521.21875 -0.96875,0.3125 0,13 17.84375,0 0,-13.3125 -16.875,0 z"
       id="rect4724"
       inkscape:connector-curvature="0" />
    <path
       style="fill:#000000;fill-opacity:0.01960784;stroke:#000000;stroke-width:0.95804721;stroke-opacity:0"
       d="m 591.44482,534.51691 17.83833,0 0,17.75006 -17.83833,0 z"
       id="rect4726" />
    <g
       transform="matrix(0.96919739,0,0,0.94702529,26.461188,22.652087)"
       id="g4728">
      <path
         style="fill:#0d5297;fill-opacity:1;stroke:#000000;stroke-opacity:0"
         d="m 546.09967,540.4975 18.40525,0 0,18.74296 -18.40525,0 z"
         id="rect4730" />
      <path
         style="fill:#821360;fill-opacity:1;stroke:#000000;stroke-opacity:0"
         d="m 527.69617,540.4975 18.40525,0 0,18.74296 -18.40525,0 z"
         id="rect4732" />
      <path
         style="fill:#cf0e15;fill-opacity:1;stroke:#000000;stroke-opacity:0"
         d="m 509.30579,540.4975 18.40525,0 0,18.74296 -18.40525,0 z"
         id="rect4734" />
      <path
         style="fill:#f7ec00;fill-opacity:1;stroke:#000000;stroke-opacity:0"
         d="m 472.49512,540.4975 18.40525,0 0,18.74296 -18.40525,0 z"
         id="rect4736" />
      <path
         style="fill:#ed440b;fill-opacity:1;stroke:#000000;stroke-opacity:0"
         d="m 490.90198,540.4975 18.40525,0 0,18.74296 -18.40525,0 z"
         id="rect4738" />
    </g>
    <path
       style="fill:#057628;fill-opacity:1;stroke:#000000;stroke-width:0.95804721;stroke-opacity:0"
       d="m 573.57538,534.51691 17.83832,0 0,17.75006 -17.83832,0 z"
       id="rect4740" />
    <path
       style="fill:#ffffff;fill-opacity:1;stroke:#000000;stroke-width:0.95804721;stroke-opacity:0"
       d="m 573.57538,516.76654 17.83832,0 0,17.75006 -17.83832,0 z"
       id="rect4742" />
    <path
       style="fill:#ffffff;fill-opacity:1;stroke:#000000;stroke-width:0.95804721;stroke-opacity:0"
       d="m 555.73956,499.01807 17.83833,0 0,17.75006 -17.83833,0 z"
       id="rect4744" />
    <path
       style="fill:#ffffff;fill-opacity:1;stroke:#000000;stroke-width:0.95804721;stroke-opacity:0"
       d="m 551.09375,481.28125 c -0.10196,0.83994 -0.2379,1.68595 -0.375,2.5 -0.002,0.01 0.002,0.0214 0,0.0312 -0.27491,1.62669 -0.62659,3.19552 -1.03125,4.71875 -0.005,0.0193 0.005,0.0433 0,0.0625 -0.20114,0.74531 -0.42638,1.46711 -0.65625,2.1875 -0.0129,0.0408 -0.0183,0.0843 -0.0312,0.125 -0.18997,0.59597 -0.41653,1.17108 -0.625,1.75 -0.0367,0.10106 -0.0565,0.21196 -0.0937,0.3125 -0.0307,0.0834 -0.0627,0.16693 -0.0937,0.25 -0.23404,0.62647 -0.49541,1.23763 -0.75,1.84375 -0.57809,1.37633 -1.20134,2.69734 -1.875,3.96875 l 10.1875,0 0,-17.75 -4.65625,0 z"
       id="rect4746"
       inkscape:connector-curvature="0" />
    <path
       style="fill:#ffffff;fill-opacity:1;stroke:#000000;stroke-width:0.95804721;stroke-opacity:0;display:inline"
       d="m 591.44482,534.51691 17.83833,0 0,17.75006 -17.83833,0 z"
       id="rect4752" />
    <path
       style="fill:#057628;fill-opacity:1;stroke:#000000;stroke-width:0.95804721;stroke-opacity:0;display:inline"
       d="m 555.7403,516.77655 17.83832,0 0,17.75006 -17.83832,0 z"
       id="rect4754" />
    <path
       style="fill:#0d5297;fill-opacity:1;stroke:#000000;stroke-width:0.95804721;stroke-opacity:0;display:inline"
       d="m 537.90625,509.75 c -0.86138,0.90723 -1.76202,1.78606 -2.65625,2.59375 -2.03582,1.8388 -4.16013,3.28039 -6.28125,4.4375 l 8.9375,0 0,-7.03125 z"
       id="rect4756"
       inkscape:connector-curvature="0" />
    <path
       style="fill:#057628;fill-opacity:1;stroke:#000000;stroke-width:0.95804721;stroke-opacity:0;display:inline"
       d="m 545.5625,499.03125 c -2.18321,4.12043 -4.7903,7.70023 -7.65625,10.71875 l 0,7.03125 17.84375,0 0,-17.75 -10.1875,0 z"
       id="rect4762"
       inkscape:connector-curvature="0" />
    <path
       style="fill:#f7ec00;fill-opacity:1;stroke:#000000;stroke-width:0.95804721;stroke-opacity:0;display:inline"
       d="m 591.41089,516.76501 17.83832,0 0,17.75007 -17.83832,0 z"
       id="rect4778" />
  </g>
</svg>
